# xmcd CD database file
#
# Track frame offsets:
#	150
#	20970
#	37059
#	55456
#	74885
#	95654
#	114075
#	131574
#	146933
#	167465
#
# Disc length: 2518 seconds
#
# Revision: 0
# Processed by: cddbd v1.5.1PL0 Copyright (c) Steve Scherf et al.
# Submitted via: CDex 1.50
#
DISCID=9c09d40a
DTITLE=Adalberto Santiago - Cosas del alma
DYEAR=2002
DGENRE=Salsa
TTITLE0=Alma con alma
TTITLE1=Dueña de mi corazon
TTITLE2=Mi propio yo
TTITLE3=Medley
TTITLE4=Quedate conmigo
TTITLE5=Medley
TTITLE6=Cosas del alma
TTITLE7=Cuando te deje de quere
TTITLE8=No somos nada
TTITLE9=Delirio
EXTD=YEAR: 2002
EXTT0=
EXTT1=
EXTT2=
EXTT3=
EXTT4=
EXTT5=
EXTT6=
EXTT7=
EXTT8=
EXTT9=
PLAYORDER=
